<svg width="30" height="30" viewBox="0 0 30 30" fill="none" xmlns="http://www.w3.org/2000/svg">
<path d="M20.4428 0.592107C20.4033 0.533902 20.3526 0.484069 20.2937 0.445456C20.2349 0.406844 20.169 0.380209 20.0998 0.367075C20.0307 0.35394 19.9596 0.354563 19.8907 0.368909C19.8218 0.383254 19.7564 0.41104 19.6982 0.450679L15.2336 3.48604C15.1616 3.53522 15.1026 3.60123 15.0619 3.67834C15.0212 3.75545 15 3.84134 15 3.92854V9.82032H16.0714V4.21246L20.3014 1.33568C20.4187 1.25574 20.4994 1.13255 20.5259 0.993145C20.5524 0.853739 20.5226 0.709507 20.4428 0.592107ZM18.75 29.6428H11.25C11.1209 29.6428 10.9962 29.5962 10.8987 29.5115C10.8013 29.4269 10.7377 29.3099 10.7196 29.1821L8.57677 14.1821C8.56566 14.1064 8.57111 14.0291 8.59276 13.9557C8.6144 13.8822 8.65171 13.8144 8.70213 13.7568C8.7522 13.6984 8.81435 13.6516 8.88427 13.6196C8.9542 13.5876 9.03023 13.5711 9.10713 13.5714H20.8928C21.0482 13.5714 21.1961 13.6378 21.2978 13.7568C21.3482 13.8144 21.3855 13.8823 21.4071 13.9557C21.4287 14.0291 21.4342 14.1064 21.4232 14.1821L19.2803 29.1821C19.2623 29.3099 19.1987 29.4269 19.1012 29.5115C19.0038 29.5962 18.8791 29.6428 18.75 29.6428ZM11.715 28.5714H18.2861L20.2757 14.6428H9.72534L11.715 28.5714Z" fill="#121212" stroke="#121212" stroke-width="0.5"/>
<path d="M23.0357 14.6429H6.9643C6.82222 14.6429 6.68596 14.5864 6.5855 14.486C6.48503 14.3855 6.42859 14.2492 6.42859 14.1072C6.42859 12.62 7.62002 11.4286 9.08573 11.4286H20.9143C21.6188 11.4292 22.2944 11.7093 22.7926 12.2075C23.2907 12.7057 23.5709 13.3812 23.5714 14.0857C23.5714 14.3825 23.3314 14.6429 23.0357 14.6429ZM7.58573 13.5714H22.4143C22.2 12.9489 21.6086 12.5 20.9143 12.5H9.08573C8.39145 12.5 7.80002 12.9489 7.58573 13.5714Z" fill="#121212" stroke="#121212" stroke-width="0.5"/>
<path d="M20.5703 12.5001H9.85603C9.71395 12.5001 9.57769 12.4436 9.47722 12.3431C9.37675 12.2427 9.32031 12.1064 9.32031 11.9643C9.32031 10.4772 10.5117 9.28577 11.9775 9.28577H18.4489C19.1534 9.28633 19.829 9.56646 20.3271 10.0647C20.8253 10.5628 21.1055 11.2384 21.106 11.9429C21.106 12.2397 20.866 12.5001 20.5703 12.5001ZM10.4775 11.4286H19.9489C19.7346 10.8061 19.1432 10.3572 18.4489 10.3572H11.9775C11.2832 10.3572 10.6917 10.8061 10.4775 11.4286ZM15.0664 22.084C13.2889 22.084 11.8435 20.6386 11.8435 18.8611C11.8435 17.0836 13.29 15.6383 15.0664 15.6383C16.8428 15.6383 18.2892 17.0836 18.2892 18.8611C18.2892 20.6386 16.8439 22.084 15.0664 22.084ZM15.0664 16.5929C13.816 16.5929 12.7982 17.6108 12.7982 18.8611C12.7982 20.1115 13.816 21.1293 15.0664 21.1293C16.3167 21.1293 17.3346 20.1115 17.3346 18.8611C17.3346 17.6108 16.3167 16.5929 15.0664 16.5929Z" fill="#121212" stroke="#121212" stroke-width="0.5"/>
</svg>
