<svg width="19" height="19" viewBox="0 0 19 19" fill="none" xmlns="http://www.w3.org/2000/svg">
<g clip-path="url(#clip0_510_477)">
<path d="M17.5391 12.8056C17.0089 14.0593 16.1797 15.1641 15.124 16.0233C14.0682 16.8826 12.818 17.4701 11.4828 17.7346C10.1475 17.999 8.76775 17.9324 7.46419 17.5404C6.16062 17.1485 4.97292 16.4431 4.00491 15.4861C3.03691 14.5291 2.31808 13.3495 1.91126 12.0505C1.50444 10.7515 1.42203 9.37265 1.67123 8.03444C1.92043 6.69623 2.49364 5.43943 3.34077 4.37393C4.18789 3.30843 5.28313 2.46667 6.53073 1.92224" stroke="black" stroke-width="1.5" stroke-linecap="round" stroke-linejoin="round"/>
<path d="M18.1973 9.56392C18.1973 8.46958 17.9818 7.38594 17.563 6.3749C17.1442 5.36385 16.5304 4.44519 15.7566 3.67137C14.9827 2.89755 14.0641 2.28372 13.053 1.86493C12.042 1.44614 10.9584 1.23059 9.86401 1.23059V9.56392H18.1973Z" stroke="black" stroke-width="1.5" stroke-linecap="round" stroke-linejoin="round"/>
</g>
<defs>
<clipPath id="clip0_510_477">
<rect width="19" height="19" fill="black"/>
</clipPath>
</defs>
</svg>
